<mxfile host="app.diagrams.net" modified="2023-01-11T07:54:03.884Z" agent="5.0 (Windows NT 10.0; Win64; x64) AppleWebKit/537.36 (KHTML, like Gecko) Chrome/108.0.0.0 Safari/537.36" etag="6OrEU0FttmZeKOY0OBup" version="20.8.3" type="github">
  <diagram id="kgpKYQtTHZ0yAKxKKP6v" name="Page-1">
    <mxGraphModel dx="2282" dy="764" grid="1" gridSize="10" guides="1" tooltips="1" connect="1" arrows="1" fold="1" page="1" pageScale="1" pageWidth="850" pageHeight="1100" math="0" shadow="0">
      <root>
        <mxCell id="0" />
        <mxCell id="1" parent="0" />
        <mxCell id="mI0ysfV0genLXwuplDbN-1" value="" style="rounded=0;whiteSpace=wrap;html=1;fillColor=#dae8fc;strokeColor=#6c8ebf;" vertex="1" parent="1">
          <mxGeometry x="-290" y="120" width="40" height="90" as="geometry" />
        </mxCell>
        <mxCell id="mI0ysfV0genLXwuplDbN-2" value="" style="rounded=0;whiteSpace=wrap;html=1;" vertex="1" parent="1">
          <mxGeometry x="-250" y="120" width="670" height="90" as="geometry" />
        </mxCell>
        <mxCell id="mI0ysfV0genLXwuplDbN-3" value="&lt;font style=&quot;font-size: 19px;&quot;&gt;访问层&lt;/font&gt;" style="text;html=1;align=center;verticalAlign=middle;resizable=0;points=[];autosize=1;strokeColor=none;fillColor=none;rotation=-90;" vertex="1" parent="1">
          <mxGeometry x="-310" y="145" width="80" height="40" as="geometry" />
        </mxCell>
        <mxCell id="mI0ysfV0genLXwuplDbN-4" value="" style="fontColor=#0066CC;verticalAlign=top;verticalLabelPosition=bottom;labelPosition=center;align=center;html=1;outlineConnect=0;fillColor=#CCCCCC;strokeColor=#6881B3;gradientColor=none;gradientDirection=north;strokeWidth=2;shape=mxgraph.networks.laptop;fontSize=19;" vertex="1" parent="1">
          <mxGeometry x="-200" y="130" width="100" height="55" as="geometry" />
        </mxCell>
        <mxCell id="mI0ysfV0genLXwuplDbN-5" value="&lt;font style=&quot;font-size: 16px;&quot;&gt;笔记本&lt;/font&gt;" style="text;html=1;align=center;verticalAlign=middle;resizable=0;points=[];autosize=1;strokeColor=none;fillColor=none;fontSize=19;" vertex="1" parent="1">
          <mxGeometry x="-190" y="180" width="70" height="40" as="geometry" />
        </mxCell>
        <mxCell id="mI0ysfV0genLXwuplDbN-6" value="" style="fontColor=#0066CC;verticalAlign=top;verticalLabelPosition=bottom;labelPosition=center;align=center;html=1;outlineConnect=0;fillColor=#CCCCCC;strokeColor=#6881B3;gradientColor=none;gradientDirection=north;strokeWidth=2;shape=mxgraph.networks.pc;fontSize=16;" vertex="1" parent="1">
          <mxGeometry x="-20" y="127" width="80" height="53" as="geometry" />
        </mxCell>
        <mxCell id="mI0ysfV0genLXwuplDbN-7" value="&lt;font style=&quot;font-size: 16px;&quot;&gt;台式&lt;/font&gt;" style="text;html=1;align=center;verticalAlign=middle;resizable=0;points=[];autosize=1;strokeColor=none;fillColor=none;fontSize=19;" vertex="1" parent="1">
          <mxGeometry x="-10" y="180" width="60" height="40" as="geometry" />
        </mxCell>
        <mxCell id="mI0ysfV0genLXwuplDbN-8" value="" style="fontColor=#0066CC;verticalAlign=top;verticalLabelPosition=bottom;labelPosition=center;align=center;html=1;outlineConnect=0;fillColor=#CCCCCC;strokeColor=#6881B3;gradientColor=none;gradientDirection=north;strokeWidth=2;shape=mxgraph.networks.server;fontSize=16;" vertex="1" parent="1">
          <mxGeometry x="180" y="127" width="50" height="57" as="geometry" />
        </mxCell>
        <mxCell id="mI0ysfV0genLXwuplDbN-9" value="&lt;font style=&quot;font-size: 16px;&quot;&gt;服务器&lt;/font&gt;" style="text;html=1;align=center;verticalAlign=middle;resizable=0;points=[];autosize=1;strokeColor=none;fillColor=none;fontSize=19;" vertex="1" parent="1">
          <mxGeometry x="170" y="180" width="70" height="40" as="geometry" />
        </mxCell>
        <mxCell id="mI0ysfV0genLXwuplDbN-10" value="" style="fontColor=#0066CC;verticalAlign=top;verticalLabelPosition=bottom;labelPosition=center;align=center;html=1;outlineConnect=0;fillColor=#CCCCCC;strokeColor=#6881B3;gradientColor=none;gradientDirection=north;strokeWidth=2;shape=mxgraph.networks.scanner;fontSize=16;" vertex="1" parent="1">
          <mxGeometry x="320" y="127" width="70" height="52" as="geometry" />
        </mxCell>
        <mxCell id="mI0ysfV0genLXwuplDbN-11" value="&lt;font style=&quot;font-size: 16px;&quot;&gt;其他终端&lt;/font&gt;" style="text;html=1;align=center;verticalAlign=middle;resizable=0;points=[];autosize=1;strokeColor=none;fillColor=none;fontSize=19;" vertex="1" parent="1">
          <mxGeometry x="310" y="179" width="90" height="40" as="geometry" />
        </mxCell>
        <mxCell id="mI0ysfV0genLXwuplDbN-12" value="" style="rounded=0;whiteSpace=wrap;html=1;fillColor=#dae8fc;strokeColor=#6c8ebf;" vertex="1" parent="1">
          <mxGeometry x="-290" y="240" width="40" height="90" as="geometry" />
        </mxCell>
        <mxCell id="mI0ysfV0genLXwuplDbN-13" value="" style="rounded=0;whiteSpace=wrap;html=1;" vertex="1" parent="1">
          <mxGeometry x="-250" y="240" width="670" height="90" as="geometry" />
        </mxCell>
        <mxCell id="mI0ysfV0genLXwuplDbN-14" value="&lt;font style=&quot;font-size: 19px;&quot;&gt;WEB层&lt;/font&gt;" style="text;html=1;align=center;verticalAlign=middle;resizable=0;points=[];autosize=1;strokeColor=none;fillColor=none;rotation=-90;" vertex="1" parent="1">
          <mxGeometry x="-315" y="265" width="90" height="40" as="geometry" />
        </mxCell>
      </root>
    </mxGraphModel>
  </diagram>
</mxfile>
